# AST/ASF file generated using VICON BodyLanguage
# -----------------------------------------------
:version 1.10
:name VICON
:units
  mass 1.0
  length 0.45
  angle deg
:documentation
   .ast/.asf automatically generated from VICON data using
   VICON BodyBuilder and BodyLanguage model FoxedUp or BRILLIANT.MOD
:root
   order TX TY TZ RX RY RZ
   axis XYZ
   position 0 0 0  
   orientation 0 0 0 
:bonedata
  begin
     id 1 
     name lhipjoint
     direction 0.573633 -0.743009 0.344793 
     length 2.46257 
     axis 0 0 0  XYZ
  end
  begin
     id 2 
     name lfemur
     direction 0.34202 -0.939693 0  
     length 7.3842  
     axis 0 0 20  XYZ
    dof rx ry rz
    limits (-160.0 20.0)
           (-70.0 70.0)
           (-60.0 70.0)
  end
  begin
     id 3 
     name ltibia
     direction 0.34202 -0.939693 0   
     length 7.50407   
     axis 0 0 20   XYZ
    dof rx
    limits (-10.0 170.0)
  end
  begin
     id 4 
     name lfoot
     direction 0.110749 -0.304281 0.946123   
     length 1.95925   
     axis -90 7.62852e-016 20   XYZ
    dof rx rz
    limits (-45.0 90.0)
           (-70.0 20.0)
  end
  begin
     id 5 
     name ltoes
     direction 1.53554e-011 -4.21843e-011 1   
     length 0.978318   
     axis -90 7.62852e-016 20   XYZ
    dof rx
    limits (-90.0 20.0)
  end
  begin
     id 6 
     name rhipjoint
     direction -0.488109 -0.791693 0.367385   
     length 2.31113  
     axis 0 0 0  XYZ 
  end
  begin
     id 7 
     name rfemur
     direction -0.34202 -0.939693 0   
     length 7.40965   
     axis 0 0 -20   XYZ
    dof rx ry rz
    limits (-160.0 20.0)
           (-70.0 70.0)
           (-70.0 60.0)
  end
  begin
     id 8 
     name rtibia
     direction -0.34202 -0.939693 0   
     length 7.55548   
     axis 0 0 -20   XYZ
    dof rx
    limits (-10.0 170.0)
 end
 begin
     id 9 
     name rfoot
     direction -0.127594 -0.350561 0.927808   
     length 2.07199  
     axis -90 -7.62852e-016 -20   XYZ
    dof rx rz
    limits (-45.0 90.0)
           (-20.0 70.0)
  end
  begin
     id 10 
     name rtoes
     direction -1.53542e-011 -4.21909e-011 1   
     length 1.02667   
     axis -90 -7.62852e-016 -20   XYZ
    dof rx
    limits (-90.0 20.0)
  end
  begin
     id 11 
     name lowerback
     direction -0.0103342 0.997298 -0.0727278   
     length 2.02836   
     axis 0 0 0   XYZ
    dof rx ry rz
    limits (-20.0 45.0)
           (-30.0 30.0)
           (-30.0 30.0)
  end
  begin
     id 12 
     name upperback
     direction 0.0171146 0.999786 -0.011606   
     length 2.03179   
     axis 0 0 0   XYZ
    dof rx ry rz
    limits (-20.0 45.0)
           (-30.0 30.0)
           (-30.0 30.0)
  end
  begin
     id 13 
     name thorax
     direction 0.0216927 0.999513 0.0224343   
     length 2.03882   
     axis 0 0 0   XYZ
    dof rx ry rz
    limits (-20.0 45.0)
           (-30.0 30.0)
           (-30.0 30.0)
  end
  begin
     id 14 
     name lowerneck
     direction 0.000989287 0.993907 0.110221   
     length 1.75428   
     axis 0 0 0   XYZ
    dof rx ry rz
    limits (-20.0 45.0)
           (-30.0 30.0)
           (-30.0 30.0)
  end
  begin
     id 15 
     name upperneck
     direction -0.0172474 0.994813 -0.100253   
     length 1.77058   
     axis 0 0 0   XYZ
    dof rx ry rz
    limits (-20.0 45.0)
           (-30.0 30.0)
           (-30.0 30.0)
  end
  begin
     id 16
     name head
     direction -0.00486455 0.99894 -0.0457663  
     length 1.77427  
     axis 0 0 0   XYZ
    dof rx ry rz
    limits (-20.0 45.0)
           (-30.0 30.0)
           (-30.0 30.0)
  end
  begin
     id 17 
     name lclavicle
     direction 0.927314 0.333734 -0.169441  
     length 3.97584  
     axis 0 0 0   XYZ
    dof ry rz
    limits (-20.0 10.0)
           (0.0 20.0)
  end
  begin
     id 18 
     name lhumerus
     direction 1 -4.48965e-011 -3.25313e-028   
     length 4.76468   
     axis 180 -30 -90   XYZ
    dof rx ry rz
    limits (-60.0 90.0)
           (-90.0 90.0)
           (-90.0 90.0)
  end
  begin
     id 19
     name lradius
     direction 1 -4.48969e-011 -2.8465e-028   
     length 3.52712   
     axis -180 -30 -90   XYZ
    dof rx
    limits (-10.0 170.0)
  end
  begin
     id 20
     name lwrist
     direction 1 -4.4896e-011 -7.78665e-028   
     length 1.76356   
     axis 1.91374e-015 90 90   XYZ
    dof ry
    limits (-180.0 0.0)
 end
  begin
     id 21 
     name lhand
     direction 1 -4.48959e-011 -1.55733e-027   
     length 0.859564   
     axis 9.9371e-016 90 90   XYZ
    dof rx rz
    limits (-90.0 90.0)
           (-45.0 45.0)
  end
  begin
     id 22 
     name lfingers
     direction 1 -4.48965e-011 -3.11466e-027   
     length 0.693002   
     axis 1.98742e-015 90 90   XYZ
    dof rx
    limits (0.0 90.0)
  end
  begin
     id 23
     name lthumb
     direction 0.707107 -6.34948e-011 0.707107   
     length 0.995017   
     axis -90 45 2.85299e-015   XYZ
    dof rx rz
    limits (-45.0 45.0)
           (-45.0 45.0)
  end
  begin
     id 24 
     name rclavicle
     direction -0.899388 0.348209 -0.264294   
     length 3.68366  
     axis 0 0 0   XYZ 
    dof ry rz
    limits (-10.0 20.0)
           (-20.0 0.0)
  end
  begin
     id 25 
     name rhumerus
     direction -1 -4.48965e-011 -3.01536e-027  
     length 4.90577   
     axis 180 30 90   XYZ
    dof rx ry rz
    limits (-90.0 60.0)
           (-90.0 90.0)
           (-90.0 90.0)
  end
  begin
     id 26 
     name rradius
     direction -1 -4.48966e-011 3.93291e-027   
     length 3.42692   
     axis -180 30 90   XYZ
    dof rx
    limits (-10.0 170.0)
  end
  begin
     id 27 
     name rwrist
     direction -1 -4.48969e-011 -7.78665e-028   
     length 1.71346   
     axis 1.91374e-015 -90 -90   XYZ
    dof ry
    limits (-180.0 0.0)
  end
  begin
     id 28
     name rhand
     direction -1 -4.48967e-011 -1.55733e-027   
     length 0.740957   
     axis 9.9371e-016 -90 -90   XYZ
    dof rx rz
    limits (-90.0 90.0)
           (-45.0 45.0)
  end
  begin
     id 29
     name rfingers
     direction -1 -4.48949e-011 -3.11466e-027   
     length 0.597378   
     axis 1.98742e-015 -90 -90   XYZ
    dof rx
    limits (0.0 90.0)
  end
  begin
     id 30
     name rthumb
     direction -0.707107 -6.34931e-011 0.707107   
     length 0.857719   
     axis -90 -45 -2.85299e-015   XYZ
    dof rx rz
    limits (-45.0 45.0)
           (-45.0 45.0)
  end
:hierarchy
  begin
    root lhipjoint rhipjoint lowerback
    lhipjoint lfemur
    lfemur ltibia
    ltibia lfoot
    lfoot ltoes
    rhipjoint rfemur
    rfemur rtibia
    rtibia rfoot
    rfoot rtoes
    lowerback upperback
    upperback thorax
    thorax lowerneck lclavicle rclavicle
    lowerneck upperneck
    upperneck head
    lclavicle lhumerus
    lhumerus lradius
    lradius lwrist
    lwrist lhand lthumb
    lhand lfingers
    rclavicle rhumerus
    rhumerus rradius
    rradius rwrist
    rwrist rhand rthumb
    rhand rfingers
  end

#!OML:ASF E:\I on waltz\AllaLogoMonkeySwing\Project 1\Capture day 1\Session 1\Subject1.ASF
:FULLY-SPECIFIED
:DEGREES
33
root -0.11779 18.04 -27.4877 2.76323 -2.54277 -0.623446
lowerback 6.70581 -0.855112 -3.98569
upperback 0.893528 -1.3661 2.10205
thorax -2.69147 -0.633419 4.54424
lowerneck -7.85997 -7.09771 -7.50456
upperneck 9.24206 -8.95386 2.98054
head 4.5257 -4.50627 1.5303
rclavicle -2.08227e-014 -3.97569e-015
rhumerus -24.384 -14.6496 -84.7165
rradius 21.3244
rwrist 9.49555
rhand -8.17709 -37.4665
rfingers 7.12502
rthumb 17.7384 -66.6774
lclavicle -2.08227e-014 -3.97569e-015
lhumerus -42.2948 30.2562 74.2727
lradius 54.0497
lwrist 169.737
lhand -29.5911 7.06995
lfingers 7.12502
lthumb -2.92259 37.0297
rfemur -4.03232 -1.13814 18.648
rtibia 18.3703
rfoot -16.3099 -8.53062
rtoes 9.84976
lfemur 1.60167 2.88985 -18.9007
ltibia 9.17474
lfoot -12.8221 1.71759
ltoes -30.61
34
root -0.119238 18.0411 -27.4863 2.78766 -2.49673 -0.613053
lowerback 6.75337 -0.845404 -3.99711
upperback 0.855728 -1.35606 2.0932
thorax -2.75829 -0.625777 4.54256
lowerneck -7.70748 -7.0918 -7.42738
upperneck 9.18305 -8.95116 2.84604
head 4.47256 -4.51092 1.4844
rclavicle -2.1096e-014 1.68967e-014
rhumerus -24.4313 -14.0325 -85.0826
rradius 21.7295
rwrist 9.15438
rhand -8.42904 -37.443
rfingers 7.12502
rthumb 17.496 -66.6757
lclavicle -2.1096e-014 1.68967e-014
lhumerus -41.889 29.442 75.0119
lradius 54.488
lwrist 170.233
lhand -30.0208 7.24775
lfingers 7.12502
lthumb -3.33751 37.2014
rfemur -4.04293 -1.15407 18.6446
rtibia 18.3539
rfoot -16.1434 -8.52544
rtoes 9.84147
lfemur 1.56481 2.92676 -18.9035
ltibia 9.20097
lfoot -12.8366 1.68871
ltoes -30.929
35
root -0.12071 18.0424 -27.4857 2.79356 -2.45379 -0.693501
lowerback 6.87189 -0.856502 -3.88179
upperback 0.814632 -1.36615 2.10161
thorax -2.86863 -0.628251 4.49066
lowerneck -7.69622 -7.07207 -7.41633
upperneck 9.28869 -8.91771 2.74707
head 4.4966 -4.50041 1.45371
rclavicle 5.73991e-015 2.52457e-014
rhumerus -24.244 -13.5897 -85.3998
rradius 21.9789
rwrist 8.54339
rhand -8.45724 -37.6635
rfingers 7.12502
rthumb 17.4688 -66.8986
lclavicle 5.73991e-015 2.52457e-014
lhumerus -41.6044 28.7479 75.5757
lradius 54.9396
lwrist 170.671
lhand -30.4462 7.3237
lfingers 7.12502
lthumb -3.74839 37.2705
rfemur -4.03008 -1.14138 18.7546
rtibia 18.3871
rfoot -16.4593 -8.5535
rtoes 9.7961
lfemur 1.55396 2.91401 -18.7987
ltibia 9.21796
lfoot -12.8293 1.6857
ltoes -31.049
36
root -0.122133 18.0444 -27.4845 2.80571 -2.43785 -0.755711
lowerback 6.96533 -0.91455 -3.80116
upperback 0.798664 -1.43989 2.11946
thorax -2.93118 -0.663887 4.47289
lowerneck -7.86936 -7.0131 -7.42157
upperneck 9.46075 -8.81671 2.65511
head 4.56931 -4.45557 1.425
rclavicle -9.81499e-015 2.74323e-014
rhumerus -24.0425 -12.8235 -85.7857
rradius 22.3155
rwrist 7.80128
rhand -8.39841 -37.9361
rfingers 7.12502
rthumb 17.5255 -67.1662
lclavicle -9.81499e-015 2.74323e-014
lhumerus -41.4244 28.292 75.9411
lradius 55.3792
lwrist 171.008
lhand -30.8169 7.38233
lfingers 7.12502
lthumb -4.10628 37.3225
rfemur -4.02443 -1.12047 18.8409
rtibia 18.4048
rfoot -16.7479 -8.56468
rtoes 9.79877
lfemur 1.53919 2.87929 -18.7189
ltibia 9.22622
lfoot -12.8006 1.70889
ltoes -31.0901
37
root -0.122603 18.0465 -27.4812 2.83675 -2.47366 -0.793488
lowerback 7.05778 -0.953381 -3.67384
upperback 0.751984 -1.48617 2.07823
thorax -3.03081 -0.685146 4.36516
lowerneck -7.90484 -6.93978 -7.3812
upperneck 9.48541 -8.71614 2.61557
head 4.57417 -4.40687 1.41284
rclavicle -1.03865e-014 2.38542e-014
rhumerus -23.9786 -12.2611 -86.1513
rradius 22.6365
rwrist 7.39013
rhand -8.42915 -38.0379
rfingers 7.12502
rthumb 17.4959 -67.2705
lclavicle -1.03865e-014 2.38542e-014
lhumerus -41.322 27.8393 76.1435
lradius 55.7368
lwrist 171.298
lhand -31.0196 7.42804
lfingers 7.12502
lthumb -4.30203 37.3643
rfemur -4.03615 -1.10187 18.8899
rtibia 18.3566
rfoot -16.699 -8.56159
rtoes 9.8212
lfemur 1.516 2.9086 -18.674
ltibia 9.236
lfoot -12.8387 1.66436
ltoes -31.219
38
root -0.123397 18.0479 -27.4768 2.87806 -2.5356 -0.841759
lowerback 7.09597 -0.950291 -3.57772
upperback 0.714377 -1.47664 2.05301
thorax -3.09526 -0.67937 4.28521
lowerneck -7.78612 -6.88498 -7.34829
upperneck 9.37519 -8.65414 2.61778
head 4.5161 -4.37553 1.41931
rclavicle -1.16289e-014 8.74653e-015
rhumerus -23.9454 -11.8249 -86.4314
rradius 22.9286
rwrist 7.16593
rhand -8.50383 -38.1041
rfingers 7.12502
rthumb 17.424 -67.3432
lclavicle -1.16289e-014 8.74653e-015
lhumerus -41.2097 27.4857 76.2903
lradius 55.9589
lwrist 171.574
lhand -31.1903 7.5402
lfingers 7.12502
lthumb -4.46693 37.4731
rfemur -4.06056 -1.082 18.9508
rtibia 18.3634
rfoot -16.5745 -8.50682
rtoes 9.69197
lfemur 1.49197 2.9394 -18.6233
ltibia 9.24519
lfoot -12.8598 1.63769
ltoes -31.2756
39
root -0.125496 18.0476 -27.473 2.91291 -2.59696 -0.918032
lowerback 7.06937 -0.94432 -3.55515
upperback 0.718584 -1.46504 2.0867
thorax -3.07686 -0.674267 4.30574
lowerneck -7.74934 -6.85834 -7.2934
upperneck 9.33455 -8.61785 2.53447
head 4.48962 -4.36042 1.39031
rclavicle -9.19379e-015 8.54774e-015
rhumerus -23.8277 -11.1621 -86.6739
rradius 23.2008
rwrist 6.67331
rhand -8.62404 -38.1945
rfingers 7.12502
rthumb 17.3083 -67.4438
lclavicle -9.19379e-015 8.54774e-015
lhumerus -41.1087 27.4306 76.3478
lradius 56.0429
lwrist 171.83
lhand -31.3887 7.73066
lfingers 7.12502
lthumb -4.6585 37.6594
rfemur -4.08457 -1.05204 19.0533
rtibia 18.3981
rfoot -16.4299 -8.46143
rtoes 9.34815
lfemur 1.46888 2.88932 -18.5442
ltibia 9.26814
lfoot -12.7632 1.83709
ltoes -31.1506
40
root -0.127409 18.0463 -27.4688 2.91031 -2.67638 -0.93116
lowerback 7.09474 -0.920792 -3.58013
upperback 0.735483 -1.4359 2.10052
thorax -3.07547 -0.659723 4.3321
lowerneck -7.73585 -6.85449 -7.28454
upperneck 9.29384 -8.60982 2.49586
head 4.47239 -4.35806 1.379
rclavicle -8.19987e-016 -1.41137e-014
rhumerus -23.6716 -10.6761 -86.8311
rradius 23.4209
rwrist 6.18945
rhand -8.75402 -38.3991
rfingers 7.12502
rthumb 17.1832 -67.6594
lclavicle -8.19987e-016 -1.41137e-014
lhumerus -41.0628 27.5308 76.2904
lradius 55.9982
lwrist 171.978
lhand -31.5193 8.11356
lfingers 7.12502
lthumb -4.78454 38.0395
rfemur -4.07888 -1.03093 19.0774
rtibia 18.3263
rfoot -16.1791 -8.51566
rtoes 9.09493
lfemur 1.49642 2.81181 -18.5476
ltibia 9.26169
lfoot -12.6781 2.09924
ltoes -31.1205
41
root -0.129309 18.0461 -27.4638 2.92837 -2.7769 -0.798064
lowerback 7.09265 -0.880964 -3.7682
upperback 0.76209 -1.39758 2.09559
thorax -3.04618 -0.639604 4.42965
lowerneck -7.78631 -6.85687 -7.33499
upperneck 9.25208 -8.60142 2.48842
head 4.46938 -4.35516 1.38405
rclavicle 1.23743e-014 1.59028e-015
rhumerus -23.4974 -10.577 -86.8379
rradius 23.5965
rwrist 6.03742
rhand -8.77245 -38.6315
rfingers 7.12502
rthumb 17.1655 -67.8933
lclavicle 1.23743e-014 1.59028e-015
lhumerus -40.9749 27.7297 76.2084
lradius 55.8421
lwrist 172.062
lhand -31.653 8.64523
lfingers 7.12502
lthumb -4.91367 38.5683
rfemur -4.11338 -1.01943 18.9176
rtibia 18.2987
rfoot -15.9191 -8.50131
rtoes 9.05232
lfemur 1.50056 2.8091 -18.7182
ltibia 9.24125
lfoot -12.6724 2.23312
ltoes -31.127
42
root -0.131268 18.0456 -27.4587 3.00336 -2.88476 -0.660416
lowerback 7.03496 -0.848811 -3.94632
upperback 0.749927 -1.36738 2.07847
thorax -3.02593 -0.622786 4.50879
lowerneck -7.81824 -6.86859 -7.33271
upperneck 9.25665 -8.60672 2.41379
head 4.47298 -4.36146 1.35941
rclavicle 1.02871e-014 -5.76476e-015
rhumerus -23.4206 -10.5729 -86.7821
rradius 23.7384
rwrist 6.01995
rhand -8.81133 -38.6479
rfingers 7.12502
rthumb 17.128 -67.913
lclavicle 1.02871e-014 -5.76476e-015
lhumerus -40.9177 27.9268 76.0799
lradius 55.6839
lwrist 172.005
lhand -31.7068 9.10745
lfingers 7.12502
lthumb -4.96567 39.0293
rfemur -4.19774 -0.959042 18.7595
rtibia 18.3222
rfoot -15.848 -8.44145
rtoes 9.06068
lfemur 1.44344 2.85029 -18.8902
ltibia 9.22758
lfoot -12.6648 2.3026
ltoes -31.1133
